<svg xmlns="http://www.w3.org/2000/svg" fill="none" viewBox="0 0 24 24" id="job">
  <path fill="#d85b53" fill-rule="evenodd" d="M5.108 4.867c.717-.097 1.595-.114 2.651-.116A3.25 3.25 0 0 1 11 1.75h2a3.25 3.25 0 0 1 3.24 3c1.057.003 1.935.02 2.652.117.9.12 1.658.38 2.26.981.602.602.86 1.36.982 2.26.116.867.116 1.97.116 3.337v4.11c0 1.367 0 2.47-.116 3.337-.122.9-.38 1.658-.982 2.26-.602.602-1.36.86-2.26.982-.867.116-1.97.116-3.337.116h-7.11c-1.367 0-2.47 0-3.337-.116-.9-.122-1.658-.38-2.26-.982-.602-.602-.86-1.36-.981-2.26-.117-.867-.117-1.97-.117-3.337v-4.11c0-1.367 0-2.47.117-3.337.12-.9.38-1.658.981-2.26.602-.602 1.36-.86 2.26-.981Zm9.624-.117H9.268A1.75 1.75 0 0 1 11 3.25h2a1.75 1.75 0 0 1 1.732 1.5ZM5.308 20.647c-.734-.099-1.122-.28-1.399-.556-.277-.277-.457-.665-.556-1.4-.101-.755-.103-1.756-.103-3.191v-3.37c1.569.658 2.86 1.19 4 1.591V15a.75.75 0 0 0 1.5 0v-.805a11.862 11.862 0 0 0 3.89.435c.857-.04 1.697-.186 2.61-.435V15a.75.75 0 0 0 1.5 0v-1.279c1.14-.402 2.431-.933 4-1.592V15.5c0 1.435-.002 2.436-.103 3.192-.099.734-.28 1.122-.556 1.399-.277.277-.665.457-1.4.556-.755.101-1.756.103-3.191.103h-7c-1.435 0-2.437-.002-3.192-.103Zm3.442-8.011c.984.296 1.824.456 2.68.495.38.018.76.018 1.14 0 .856-.04 1.697-.2 2.68-.495V11.5a.75.75 0 0 1 1.5 0v.625c1.093-.406 2.381-.942 3.998-1.622-.005-.923-.025-1.628-.101-2.195-.099-.734-.28-1.122-.556-1.399-.277-.277-.665-.457-1.4-.556-.755-.101-1.756-.103-3.191-.103h-7c-1.435 0-2.437.002-3.192.103-.734.099-1.122.28-1.399.556-.277.277-.457.665-.556 1.4-.076.566-.096 1.27-.101 2.194 1.617.68 2.905 1.216 3.998 1.622V11.5a.75.75 0 0 1 1.5 0v1.136Z" clip-rule="evenodd" class="color292d32 svgShape"></path>
</svg>
